<svg width="25" height="24" viewBox="0 0 25 24" fill="none" xmlns="http://www.w3.org/2000/svg">
<path d="M16.077 0.199997C17.7019 0.199997 19.1824 0.528697 20.5189 1.186C21.8816 1.8207 22.9692 2.6933 23.7814 3.804C24.5939 4.892 25 6.1273 25 7.51C25 8.938 24.5545 10.2413 23.6635 11.42C22.7726 12.576 21.5934 13.5053 20.1258 14.208C18.6583 14.888 17.0467 15.228 15.2909 15.228H4.24528V24H0V0.199997H16.077ZM14.8978 11.692C15.9198 11.692 16.8501 11.4993 17.6887 11.114C18.5273 10.7287 19.1956 10.2187 19.6934 9.584C20.2176 8.9493 20.4796 8.258 20.4796 7.51C20.4796 6.8073 20.2176 6.1727 19.6934 5.606C19.1956 5.0393 18.5273 4.586 17.6887 4.246C16.8501 3.906 15.9198 3.736 14.8978 3.736H4.24528V11.692H14.8978Z" fill="white"/>
</svg>
